# xmcd CD database file
#
# Track frame offsets:
#	187
#	28340
#	49585
#	62290
#	82400
#	96302
#	107327
#	119860
#	132645
#
# Disc length: 2038 seconds
#
# Revision: 0
# Processed by: cddbd v1.4PL0 Copyright (c) Steve Scherf et al.
# Submitted via: CDex 1.50
#
DISCID=8207f409
DTITLE=Ben Webster - See You At The Fair
DYEAR=1964
DGENRE=Jazz
TTITLE0=See You At The Fair
TTITLE1=Over The Rainbow
TTITLE2=Our Love Is Here To Stay
TTITLE3=In A Mellow Tone
TTITLE4=Lullaby Of Jazzland
TTITLE5=Stardust
TTITLE6=Fall Of Love
TTITLE7=While We're Danicing
TTITLE8=Someone To Watch Over Me
EXTD=YEAR: 1964
EXTT0=
EXTT1=
EXTT2=
EXTT3=
EXTT4=
EXTT5=
EXTT6=
EXTT7=
EXTT8=
PLAYORDER=
